name rise49.8558peak67.6521fall70.3087.mot
datacolumns 19
datarows 33
range 7.34830700000000 7.40163900000000
endheader
time	ground_force1_vx	ground_force1_vy	ground_force1_vz	ground_force1_px	ground_force1_py	ground_force1_pz	ground_force2_vx	ground_force2_vy	ground_force2_vz	ground_force2_px	ground_force2_py	ground_force2_pz	ground_torque1_x	ground_torque1_y	ground_torque1_z	ground_torque2_x	ground_torque2_y	ground_torque2_z	
7.34830700000000	-40.40282200000000	792.86625100000003	63.98212800000000	0.17810100000000	0.00000000000000	0.11753300000000	0.00000000000000	0.00000000000000	0.00000000000000	0.00000000000000	0.00000000000000	0.00000000000000	0.00000000000000	32.58262100000000	0.00000000000000	0.00000000000000	0.00000000000000	0.00000000000000	
7.34997400000000	-40.67437200000000	792.18553799999995	64.06180200000000	0.17719900000000	0.00000000000000	0.11749800000000	0.00000000000000	0.00000000000000	0.00000000000000	0.00000000000000	0.00000000000000	0.00000000000000	0.00000000000000	32.51715100000000	0.00000000000000	0.00000000000000	0.00000000000000	0.00000000000000	
7.35164300000000	-40.94867700000000	791.39251999999999	64.12498500000000	0.17628500000000	0.00000000000000	0.11746100000000	-0.71817100000000	3.20282400000000	0.52738600000000	0.00000000000000	0.00000000000000	0.00000000000000	0.00000000000000	32.44523500000000	0.00000000000000	0.00000000000000	0.19072100000000	0.00000000000000	
7.35330700000000	-41.22597900000000	790.48400400000003	64.17083800000000	0.17535800000000	0.00000000000000	0.11742400000000	-1.09912100000000	6.62923200000000	0.86818200000000	0.00000000000000	0.00000000000000	0.00000000000000	0.00000000000000	32.36686200000000	0.00000000000000	0.00000000000000	0.32237900000000	0.00000000000000	
7.35497600000000	-41.50649900000000	789.45685400000002	64.19853100000000	0.17442000000000	0.00000000000000	0.11738500000000	-1.51821000000000	10.83196100000000	1.25833600000000	0.00000000000000	0.00000000000000	0.00000000000000	0.00000000000000	32.28202900000000	0.00000000000000	0.00000000000000	0.47493400000000	0.00000000000000	
7.35664000000000	-41.79044300000000	788.30799100000002	64.20724300000001	0.17347100000000	0.00000000000000	0.11734600000000	-1.95884700000000	15.78389100000000	1.68726800000000	0.00000000000000	0.00000000000000	0.00000000000000	0.00000000000000	32.19074100000000	0.00000000000000	0.00000000000000	0.64484100000000	0.00000000000000	
7.35830900000000	-42.07799500000000	787.03440300000000	64.19616900000000	0.17251300000000	0.00000000000000	0.11730500000000	-2.40114600000000	21.42561500000000	2.14135100000000	0.00000000000000	0.00000000000000	0.00000000000000	0.00000000000000	32.09301500000000	0.00000000000000	0.00000000000000	0.82738100000000	0.00000000000000	
7.35997400000000	-42.36931800000000	785.63314200000002	64.16452000000000	0.17154700000000	0.00000000000000	0.11726200000000	-2.82316200000000	27.67014800000000	2.60477500000000	0.36937800000000	0.00000000000000	-0.08348100000000	0.00000000000000	31.98887700000000	0.00000000000000	0.00000000000000	1.74343300000000	0.00000000000000	
7.36164300000000	-42.66455300000000	784.10133599999995	64.11152600000000	0.17057300000000	0.00000000000000	0.11721700000000	-3.20238800000000	34.41052000000000	3.06068200000000	0.37357100000000	0.00000000000000	-0.08454000000000	0.00000000000000	31.87836300000000	0.00000000000000	0.00000000000000	2.08021200000000	0.00000000000000	
7.36330900000000	-42.96381500000000	782.43618800000002	64.03644000000000	0.16959300000000	0.00000000000000	0.11717100000000	-3.51733700000000	41.52923800000000	3.49241500000000	0.37730700000000	0.00000000000000	-0.08545100000000	0.00000000000000	31.76151600000000	0.00000000000000	0.00000000000000	2.41029100000000	0.00000000000000	
7.36497200000000	-43.26719400000000	780.63498300000003	63.93854200000000	0.16860800000000	0.00000000000000	0.11712200000000	-3.74899600000000	48.90824700000000	3.88470100000000	0.38068600000000	0.00000000000000	-0.08624100000000	0.00000000000000	31.63839000000000	0.00000000000000	0.00000000000000	2.72365100000000	0.00000000000000	
7.36663700000000	-43.57475300000000	778.69509200000005	63.81713800000000	0.16761900000000	0.00000000000000	0.11707100000000	-3.88197600000000	56.43805500000000	4.22464100000000	0.38378000000000	0.00000000000000	-0.08693300000000	0.00000000000000	31.50904600000000	0.00000000000000	0.00000000000000	3.01161900000000	0.00000000000000	
7.36831000000000	-43.88652600000000	776.61397499999998	63.67156800000000	0.16662800000000	0.00000000000000	0.11701800000000	-3.90523600000000	64.02503200000000	4.50238300000000	0.38664600000000	0.00000000000000	-0.08754500000000	0.00000000000000	31.37355300000000	0.00000000000000	0.00000000000000	3.26734800000000	0.00000000000000	
7.36996900000000	-44.20251700000000	774.38918799999999	63.50120400000000	0.16563500000000	0.00000000000000	0.11696200000000	-3.81236700000000	71.59635500000000	4.71145900000000	0.38932600000000	0.00000000000000	-0.08808800000000	0.00000000000000	31.23198800000000	0.00000000000000	0.00000000000000	3.48608700000000	0.00000000000000	
7.37163600000000	-44.52269700000000	772.01838099999998	63.30545600000000	0.16464400000000	0.00000000000000	0.11690200000000	-3.60145600000000	79.10244600000000	4.84879400000000	0.39185400000000	0.00000000000000	-0.08857400000000	0.00000000000000	31.08443200000000	0.00000000000000	0.00000000000000	3.66523500000000	0.00000000000000	
7.37330100000000	-44.84700600000000	769.49930900000004	63.08377600000000	0.16365300000000	0.00000000000000	0.11684000000000	-3.27461400000000	86.51710799999999	4.91444100000000	0.39425600000000	0.00000000000000	-0.08901100000000	0.00000000000000	30.93097700000000	0.00000000000000	0.00000000000000	3.80421600000000	0.00000000000000	
7.37496800000000	-45.17534800000000	766.82982800000002	62.83565700000000	0.16266700000000	0.00000000000000	0.11677500000000	-2.83725100000000	93.83569100000000	4.91109500000000	0.39655200000000	0.00000000000000	-0.08940600000000	0.00000000000000	30.77171500000000	0.00000000000000	0.00000000000000	3.90420200000000	0.00000000000000	
7.37664300000000	-45.50759200000000	764.00790600000005	62.56063600000000	0.16168500000000	0.00000000000000	0.11670500000000	-2.29721300000000	101.07181900000000	4.84348100000000	0.39875900000000	0.00000000000000	-0.08976400000000	0.00000000000000	30.60674700000000	0.00000000000000	0.00000000000000	3.96774500000000	0.00000000000000	
7.37830800000000	-45.84356900000000	761.03162099999997	62.25830000000000	0.16070900000000	0.00000000000000	0.11663300000000	-1.66387500000000	108.25317099999999	4.71768400000000	0.40089000000000	0.00000000000000	-0.09009000000000	0.00000000000000	30.43617300000000	0.00000000000000	0.00000000000000	3.99835400000000	0.00000000000000	
7.37997500000000	-46.18307200000000	757.89916700000003	61.92828600000000	0.15974100000000	0.00000000000000	0.11655600000000	-0.94725900000000	115.41685200000001	4.54047800000000	0.40295700000000	0.00000000000000	-0.09038800000000	0.00000000000000	30.26010000000000	0.00000000000000	0.00000000000000	4.00007000000000	0.00000000000000	
7.38164100000000	-46.52585500000000	754.60885399999995	61.57028400000000	0.15878200000000	0.00000000000000	0.11647500000000	-0.15726700000000	122.60478500000001	4.31871900000000	0.40496700000000	0.00000000000000	-0.09066100000000	0.00000000000000	30.07863600000000	0.00000000000000	0.00000000000000	3.97706700000000	0.00000000000000	
7.38330400000000	-46.87162800000000	751.15911300000005	61.18403700000000	0.15783400000000	0.00000000000000	0.11639100000000	0.69695000000000	129.85950700000001	4.05883800000000	0.40692800000000	0.00000000000000	-0.09091200000000	0.00000000000000	29.89188900000000	0.00000000000000	0.00000000000000	3.93330900000000	0.00000000000000	
7.38497300000000	-47.22006300000000	747.54849899999999	60.76934700000000	0.15689800000000	0.00000000000000	0.11630100000000	1.60744600000000	137.22061199999999	3.76645100000000	0.40884500000000	0.00000000000000	-0.09114300000000	0.00000000000000	29.69996800000000	0.00000000000000	0.00000000000000	3.87228200000000	0.00000000000000	
7.38664200000000	-47.57078500000000	743.77569000000005	60.32607500000000	0.15597600000000	0.00000000000000	0.11620700000000	2.56776200000000	144.72201300000000	3.44610300000000	0.41072300000000	0.00000000000000	-0.09135600000000	0.00000000000000	29.50298100000000	0.00000000000000	0.00000000000000	3.79680700000000	0.00000000000000	
7.38830900000000	-47.92337700000000	739.83949500000006	59.85414000000000	0.15506900000000	0.00000000000000	0.11610900000000	3.57304000000000	152.39008799999999	3.10113700000000	0.41256500000000	0.00000000000000	-0.09155300000000	0.00000000000000	29.30103700000000	0.00000000000000	0.00000000000000	3.70893800000000	0.00000000000000	
7.38997300000000	-48.27737500000000	735.73884899999996	59.35352400000000	0.15417800000000	0.00000000000000	0.11600500000000	4.61999200000000	160.24268400000000	2.73368300000000	0.41437500000000	0.00000000000000	-0.09173600000000	0.00000000000000	29.09424000000000	0.00000000000000	0.00000000000000	3.60993100000000	0.00000000000000	
7.39164000000000	-48.63227200000000	731.47281999999996	58.82427400000000	0.15330600000000	0.00000000000000	0.11589700000000	5.70674800000000	168.28890899999999	2.34473300000000	0.41615500000000	0.00000000000000	-0.09190600000000	0.00000000000000	28.88269100000000	0.00000000000000	0.00000000000000	3.50028100000000	0.00000000000000	
7.39330700000000	-48.98751000000000	727.04061000000002	58.26650000000000	0.15245300000000	0.00000000000000	0.11578300000000	6.83262300000000	176.52957300000000	1.93430200000000	0.41790700000000	0.00000000000000	-0.09206400000000	0.00000000000000	28.66649000000000	0.00000000000000	0.00000000000000	3.37981100000000	0.00000000000000	
7.39497600000000	-49.34248700000000	722.44155899999998	57.68037600000000	0.15162100000000	0.00000000000000	0.11566400000000	7.99783300000000	184.95813600000000	1.50161900000000	0.41963200000000	0.00000000000000	-0.09221200000000	0.00000000000000	28.44573000000000	0.00000000000000	0.00000000000000	3.24779300000000	0.00000000000000	
7.39663800000000	-49.69655400000000	717.67514200000005	57.06614400000000	0.15081100000000	0.00000000000000	0.11554000000000	9.20318600000000	193.56199400000000	1.04535900000000	0.42133000000000	0.00000000000000	-0.09234900000000	0.00000000000000	28.22050000000000	0.00000000000000	0.00000000000000	3.10309200000000	0.00000000000000	
7.39830400000000	-50.04901100000000	712.74097900000004	56.42411000000000	0.15002500000000	0.00000000000000	0.11541000000000	10.44978100000000	202.32394099999999	0.56386900000000	0.42300400000000	0.00000000000000	-0.09247800000000	0.00000000000000	27.99088300000000	0.00000000000000	0.00000000000000	2.94431200000000	0.00000000000000	
7.39997300000000	-50.39911400000000	707.63883399999997	55.75464800000000	0.14926300000000	0.00000000000000	0.11527400000000	11.73873500000000	211.22367600000001	0.05538200000000	0.42465200000000	0.00000000000000	-0.09259800000000	0.00000000000000	27.75695400000000	0.00000000000000	0.00000000000000	2.76994500000000	0.00000000000000	
7.40163900000000	-50.74606900000000	702.36861899999997	55.05819800000000	0.14852700000000	0.00000000000000	0.11513300000000	13.07094900000000	220.23923300000001	-0.48179700000000	0.42627600000000	0.00000000000000	-0.09271100000000	0.00000000000000	27.51878500000000	0.00000000000000	0.00000000000000	2.57849200000000	0.00000000000000	
